<svg width="24" height="24" viewBox="0 0 24 24" fill="none" xmlns="http://www.w3.org/2000/svg">
<path d="M18.324 9.137L19.883 10.697H22.439V13.254L24 14.814V9.137H18.324ZM2 9.52L0 14.48H1.309L1.679 13.498H3.9L4.308 14.48H5.646L3.432 9.52H2ZM6.209 9.52V14.475H7.447V11.383L8.785 12.945H8.973L10.311 11.389V14.48H11.549V9.52H10.47L8.878 11.365L7.287 9.52H6.209ZM12.492 9.52V14.48H14.549C16.528 14.48 17.429 13.434 17.429 12.008C17.429 10.648 16.492 9.52 14.682 9.52H12.492ZM13.729 10.43H14.521C15.691 10.43 16.151 11.141 16.151 12C16.151 12.728 15.779 13.572 14.535 13.572H13.729V10.43ZM2.744 10.703L3.535 12.635H2.008L2.744 10.703ZM19.881 11.01L18.277 12.613V14.863H20.523L22.127 13.256H19.881V11.01Z" fill="white"/>
</svg>
