<svg width="304" height="381" viewBox="0 0 304 381" fill="none" xmlns="http://www.w3.org/2000/svg">
<path d="M297.353 90.3876C289.829 75.4152 276.954 69.2698 266.365 57.5378C256.389 46.4761 249.701 32.7887 238.387 22.9002C224.175 10.4419 206.396 3.34679 187.614 1.78252C167.438 0.0506416 147.207 0.609312 127.143 4.0172C112.151 6.58708 98.8305 12.6766 88.5199 24.241C79.9369 33.906 74.7537 45.3588 71.0196 57.5936C68.7345 65.1916 66.9511 72.9012 65.5577 80.7226C64.7217 85.3595 65.6135 97.2592 60.3188 99.3822C54.8569 101.561 43.9889 98.5442 37.4681 99.9967C23.0332 103.181 13.2241 111.282 9.54573 126.142C6.81479 137.204 5.19853 148.433 3.91666 159.774C2.07746 176.534 1.01852 193.406 0.795589 210.278C0.572655 228.938 1.01853 247.541 4.75266 265.978C8.15239 282.961 18.2401 293.743 34.2913 299.33C42.094 302.068 50.2311 303.297 58.4796 303.241C60.3188 303.241 60.8761 303.688 61.0433 305.587C62.0465 316.537 63.1612 327.431 65.3348 338.214C66.5609 344.471 67.8428 350.728 71.1868 356.314C88.1855 384.304 127.589 387.768 151.387 366.706C158.911 360.058 161.531 350.281 162.422 339.778C163.425 327.99 162.144 315.252 163.091 305.084C163.37 302.235 163.314 302.235 166.212 303.073C175.854 305.867 179.198 304.973 179.532 315.308C179.755 322.012 179.532 328.66 180.48 335.308C182.431 348.772 188.728 359.946 202.383 364.024C222.224 369.946 261.293 372.404 266.365 344.806C267.814 336.929 269.152 329.107 270.433 321.23C272.886 306.202 274.948 291.062 276.899 275.978C279.128 258.827 281.079 241.675 281.413 224.357C281.803 202.792 281.469 181.227 280.131 159.663C279.908 156.087 280.8 153.908 283.698 151.618C303.539 135.975 308.611 112.902 297.353 90.3876ZM60.5417 122.679C59.65 135.249 58.8697 147.819 58.3681 160.389C57.8108 173.965 57.5321 187.54 57.4764 201.116C57.3092 227.373 57.8108 253.631 59.2041 279.833C59.2599 280.726 59.8172 281.9 58.0895 281.844C49.1164 281.453 40.5335 280 32.9537 274.581C28.1049 271.117 26.7673 265.922 25.7084 260.614C23.0332 247.765 22.4201 234.692 22.3087 221.619C22.3087 219.44 22.3087 217.262 22.3087 215.083C22.2529 198.937 23.2561 182.792 24.8167 166.702C26.0428 154.579 27.5476 142.511 30.5572 130.668C31.7276 126.142 34.57 123.349 38.8057 121.952C45.438 119.718 52.2932 120.109 59.1484 120.556C60.486 120.612 60.5975 121.45 60.5417 122.679ZM259.12 241.34C257.949 258.156 255.441 274.86 253.156 291.565C250.983 307.152 248.475 322.683 245.799 338.158C245.242 341.286 243.96 343.018 241.006 344.024C233.705 346.538 226.293 346.426 218.769 345.588C214.7 345.141 210.687 344.247 206.786 342.851C204.501 342.013 203.052 340.672 202.439 338.158C200.321 329.554 200.265 320.895 201.38 312.18C201.937 308.101 202.049 308.101 206.117 307.319C212.136 306.202 217.821 304.358 222.559 300.28C226.181 297.095 228.466 293.129 229.804 288.045C214.644 293.464 200.209 290.391 185.775 286.481C178.585 284.525 171.451 282.179 164.261 280.112C160.472 278.995 156.57 278.324 152.613 279.721C147.151 281.676 144.811 286.09 143.529 291.341C141.634 299.051 141.132 306.984 140.686 314.861C140.129 325.197 139.739 335.532 139.739 345.867C139.739 346.929 139.349 347.711 138.68 348.437C122.684 365.533 101.952 360.504 90.3033 346.258C87.238 342.515 86.9036 337.599 86.0676 333.018C82.9465 315.587 81.6647 297.933 80.6615 280.279C78.878 250.335 78.4321 220.334 78.878 190.389C79.2124 167.763 80.1041 145.137 82.0548 122.623C83.4481 106.868 85.0087 91.1138 88.4084 75.6387C90.1919 67.538 92.6441 59.6049 95.9881 52.0069C103.066 36.1407 115.216 27.3696 132.159 24.7997C149.771 22.174 167.55 21.9505 185.217 23.0678C203.944 24.2411 219.605 32.5652 232.033 46.8113C232.535 47.4259 233.259 47.8728 233.315 48.9343C229.692 48.5991 226.125 48.1521 222.559 47.9845C205.337 47.0348 188.505 49.6047 171.953 54.1858C164.484 56.2528 157.295 58.9903 149.994 61.5602C144.643 63.4597 140.742 66.9234 137.398 71.3369C130.32 80.6667 126.809 91.3373 126.14 103.014C125.415 115.695 127.645 127.93 131.992 139.774C137.454 154.411 148.656 163.126 162.589 168.881C172.844 173.071 183.545 175.026 194.58 175.696C216.093 176.981 236.993 173.965 257.169 166.423C258.674 165.864 259.12 166.087 259.175 167.707C260.067 192.233 260.903 216.815 259.12 241.34ZM274.279 131.282C266.867 138.824 257.671 143.405 247.917 146.925C233.649 152.065 218.824 154.523 199.819 154.467C191.682 154.411 180.034 153.014 168.943 148.154C162.757 145.417 156.793 142.009 153.895 135.807C147.486 122.176 145.089 107.874 149.771 93.0692C150.217 91.6166 150.885 90.22 151.554 88.8792C153.505 84.8567 156.292 82.0075 160.806 80.3874C177.805 74.242 195.026 69.605 213.195 69.2698C230.305 68.9346 246.58 71.9515 261.07 81.5047C270.433 87.6501 277.623 95.6391 280.577 106.757C283.196 116.086 281.134 124.355 274.279 131.282Z" fill="white"/>
</svg>
