<svg width="672" height="280" viewBox="0 0 672 280" fill="none" xmlns="http://www.w3.org/2000/svg">
<path fill-rule="evenodd" clip-rule="evenodd" d="M351.549 68.6357C310.465 66.7092 96.2649 61.2647 0.893677 102.559C26.6969 117.803 54.3096 133.578 86.8149 150.721C181.248 106.524 303.897 90.5252 416.559 84.3828V81.5349C394.711 78.8266 370.449 74.1639 351.549 68.6357ZM447.858 85.9742C363.278 94.4061 213.552 118.92 128.234 172.053C159.265 187.632 191.703 203.128 224.074 217.535C313.95 140.977 432.712 106.998 553.819 83.1822V80.3901C523.056 84.0198 476.543 86.2255 447.858 85.9742ZM268.711 236.716C309.661 253.636 351.951 269.215 388.008 279.602C431.438 193.272 509.987 124.783 654.753 62.0465V59.1986C468.836 110.042 352.487 146.45 268.711 236.716Z" fill="white"/>
<path d="M291.632 41.6926L285.265 15.0846L270.185 41.6926H252.089L236.808 15.0846L230.441 41.6926H211.474L223.94 0.454338H244.918L261.137 28.6818L277.423 0.454338H298.2L310.666 41.6926" fill="white"/>
<path d="M149.48 0.454338L121.465 41.6926H140.365L144.654 34.573H173.942L178.165 41.6926H199.008L170.994 0.454338H149.48ZM149.413 26.5598L159.265 10.0031L169.184 26.5598" fill="white"/>
<path d="M514.678 0.454338L486.664 41.6926H505.564L509.786 34.573H539.141L543.364 41.6926H564.207L536.192 0.454338H514.678ZM514.611 26.5598L524.464 10.0031L534.383 26.5598" fill="white"/>
<path d="M622.181 41.6926L599.595 22.2043V41.6926H580.292V0.454338H599.595V18.5188L622.181 0.454338H645.571L619.567 20.1661L647.381 41.6926" fill="white"/>
<path d="M451.679 41.6926H473.528L459.051 25.9177C467.027 23.9353 470.378 19.1889 470.378 13.8002C470.378 7.46235 465.887 4.05604 459.52 2.32499C452.885 0.510164 444.105 0.454338 435.795 0.454338C419.71 0.454338 406.238 0.454338 406.238 0.454338V41.6926H425.339V29.296H441.827L451.679 41.6926ZM425.339 8.63499C425.339 8.63499 434.32 8.63499 437.403 8.63499C447.255 8.63499 451.277 10.5336 451.277 14.7216C451.277 18.072 448.596 20.1102 445.245 20.8641C442.765 21.4225 440.553 21.5342 436.733 21.5342C433.717 21.5342 425.339 21.5342 425.339 21.5342" fill="white"/>
<path d="M363.747 9.8914V41.6926H344.378V9.8914H319.379L321.523 0.454338H389.081L386.936 9.8914" fill="white"/>
<path d="M660.718 1.82232C663.198 1.82232 665.343 2.71581 667.085 4.47479C668.828 6.20586 669.699 8.32777 669.699 10.8127C669.699 13.2976 668.828 15.4195 667.085 17.1785C665.343 18.9375 663.198 19.8309 660.718 19.8309C658.171 19.8309 656.094 18.9375 654.284 17.1785C652.541 15.4195 651.67 13.2976 651.67 10.8127C651.67 8.32777 652.541 6.20586 654.351 4.47479C656.094 2.71581 658.238 1.82232 660.718 1.82232ZM671.106 10.7848C671.106 7.90897 670.101 5.452 668.09 3.44173C666.013 1.40355 663.6 0.398407 660.651 0.398407C657.836 0.398407 655.356 1.40355 653.346 3.44173C651.268 5.47991 650.263 7.93688 650.263 10.7848C650.263 13.6885 651.268 16.1454 653.279 18.1836C655.356 20.2218 657.769 21.2549 660.651 21.2549C663.6 21.2549 666.013 20.2218 668.09 18.1836C670.101 16.1454 671.106 13.6885 671.106 10.7848ZM663.399 8.55114C663.399 9.41666 662.997 10.003 662.192 10.3101C661.79 10.4776 661.12 10.5614 660.249 10.5614H658.439V6.48502H660.182C661.321 6.48502 662.125 6.62464 662.662 6.90384C663.131 7.18304 663.399 7.74145 663.399 8.55114ZM656.496 5.06111V16.4805H658.439V11.9853H660.048C661.12 11.9853 661.857 12.1249 662.26 12.3483C662.997 12.795 663.332 13.6605 663.332 14.9728V15.8663L663.399 16.2292C663.399 16.285 663.399 16.3409 663.399 16.3688C663.399 16.3968 663.466 16.4246 663.466 16.4805H665.409L665.275 16.3409C665.275 16.2571 665.208 16.0338 665.208 15.7267C665.141 15.4474 665.141 15.1682 665.141 14.889V14.0514C665.141 13.493 664.94 12.9067 664.538 12.2924C664.136 11.6782 663.466 11.3153 662.595 11.1757C663.332 11.064 663.868 10.8685 664.27 10.6172C665.007 10.1426 665.409 9.38876 665.409 8.35571C665.409 6.93178 664.806 5.95454 663.6 5.47989C662.93 5.20069 661.924 5.06111 660.45 5.06111" fill="white"/>
</svg>
