<svg width="24" height="24" viewBox="0 0 24 24" fill="none" xmlns="http://www.w3.org/2000/svg">
<path d="M23.82 12C23.7911 10.4687 23.1556 9.01151 22.0531 7.9484C20.9507 6.8853 19.4713 6.30322 17.94 6.32999C17.65 6.32999 17.34 6.34999 17.04 6.37999C14.52 6.74999 12.84 8.55999 11.91 9.94999C10.96 8.55999 9.27 6.74999 6.77 6.37999C6.47 6.34999 6.17 6.32999 5.87 6.32999C4.3404 6.30589 2.86363 6.88917 1.76333 7.95198C0.663019 9.0148 0.0289239 10.4705 0 12C0.0289239 13.5295 0.663019 14.9852 1.76333 16.048C2.86363 17.1108 4.3404 17.6941 5.87 17.67C6.17 17.67 6.47 17.65 6.79 17.61C9.31 17.25 10.99 15.44 11.93 14.05C12.88 15.44 14.56 17.25 17.07 17.62C17.38 17.65 17.67 17.67 17.98 17.67C19.5044 17.6861 20.9735 17.0993 22.0673 16.0373C23.1611 14.9753 23.7911 13.5242 23.82 12V12ZM6.48 15.6C6.28 15.64 6.05 15.64 5.85 15.64C4.85514 15.6615 3.89211 15.2888 3.1709 14.6032C2.44969 13.9176 2.0288 12.9747 2 11.98C2.03139 10.9844 2.45446 10.0415 3.17727 9.35612C3.90007 8.67077 4.86417 8.29841 5.86 8.31999C6.06 8.31999 6.28 8.33999 6.49 8.35999C8.86 8.70999 10.31 11.03 10.8 11.98C10.3 12.93 8.85 15.28 6.49 15.6H6.48ZM13 12C13.49 11.07 14.94 8.72999 17.31 8.37999C17.51 8.33999 17.73 8.33999 17.93 8.33999C18.4246 8.32534 18.9173 8.40848 19.3798 8.58464C19.8422 8.76079 20.2653 9.0265 20.6249 9.36653C20.9844 9.70656 21.2733 10.1142 21.4749 10.5661C21.6766 11.018 21.7871 11.5053 21.8 12C21.7686 12.9956 21.3455 13.9385 20.6227 14.6239C19.8999 15.3092 18.9358 15.6816 17.94 15.66C17.74 15.66 17.52 15.64 17.32 15.62C14.96 15.27 13.5 12.93 13.01 12H13ZM4.21 12.59H7.75V11.43H4.22V12.59H4.21ZM18.34 12.59H19.53V11.43H18.33V10.24H17.2V11.44H16V12.59H17.2V13.77H18.35V12.6L18.34 12.59ZM24 7.05999C24 7.35999 23.78 7.56999 23.47 7.56999C23.4022 7.57266 23.3345 7.56177 23.271 7.53797C23.2075 7.51416 23.1493 7.47792 23.0999 7.43135C23.0506 7.38479 23.011 7.32884 22.9835 7.26679C22.9561 7.20474 22.9413 7.13783 22.94 7.06999C22.94 6.78999 23.18 6.54999 23.47 6.54999C23.78 6.54999 24 6.76999 24 7.05999V7.05999ZM23.09 7.05999C23.09 7.27999 23.25 7.45999 23.49 7.45999C23.71 7.45999 23.87 7.27999 23.87 7.05999C23.87 6.83999 23.71 6.65999 23.49 6.65999C23.25 6.63999 23.09 6.81999 23.09 7.05999ZM23.39 7.31999H23.29V6.79999L23.49 6.78999C23.58 6.78999 23.63 6.79999 23.67 6.81999C23.71 6.83999 23.73 6.87999 23.73 6.92999C23.73 6.98999 23.69 7.02999 23.62 7.03999C23.67 7.05999 23.69 7.09999 23.71 7.16999L23.74 7.29999H23.62C23.6 7.27999 23.6 7.22999 23.58 7.16999C23.56 7.11999 23.54 7.09999 23.47 7.09999H23.42L23.4 7.31999H23.39ZM23.41 7.01999H23.47C23.54 7.01999 23.57 7.00999 23.57 6.94999C23.57 6.89999 23.54 6.87999 23.47 6.87999H23.4V7.01999H23.41V7.01999Z" fill="white"/>
</svg>
