<svg width="24" height="24" viewBox="0 0 24 24" fill="none" xmlns="http://www.w3.org/2000/svg">
<g clip-path="url(#clip0_34:14)">
<path d="M12.51 13.214C12.556 12.414 12.948 11.708 13.54 11.208C14.1611 10.6921 14.9445 10.4123 15.752 10.418C16.602 10.418 17.383 10.718 17.963 11.208C18.555 11.708 18.946 12.414 18.991 13.213C19.036 14.036 18.706 14.799 18.126 15.366C17.4871 15.9761 16.6353 16.3127 15.752 16.304C14.868 16.3128 14.0155 15.9762 13.376 15.366C12.796 14.799 12.466 14.036 12.511 13.214H12.51ZM7.34997 14.831C7.35597 15.145 7.45597 15.753 7.60597 16.229C7.92979 17.2531 8.47347 18.194 9.19897 18.986C9.97702 19.8415 10.9267 20.5233 11.986 20.987C13.1388 21.4952 14.3861 21.7542 15.646 21.747C16.9057 21.7495 18.1518 21.4864 19.303 20.975C20.3615 20.5069 21.3102 19.8222 22.088 18.965C22.8123 18.1704 23.3554 17.228 23.68 16.203C23.992 15.2099 24.0774 14.1595 23.93 13.129C23.7896 12.1418 23.4434 11.195 22.914 10.35C22.4235 9.56395 21.7963 8.87204 21.062 8.307H21.064L13.566 2.55L13.546 2.535C13.054 2.157 12.227 2.159 11.686 2.537C11.139 2.919 11.077 3.552 11.563 3.952L11.562 3.953L14.688 6.496L5.15797 6.506H5.14497C4.35697 6.507 3.59997 7.024 3.44997 7.678C3.29597 8.343 3.82997 8.895 4.64997 8.898V8.9L9.47997 8.89L0.859967 15.507L0.825967 15.532C0.0129669 16.154 -0.249033 17.19 0.262967 17.845C0.782967 18.512 1.88797 18.513 2.70997 17.849L7.41397 14C7.41397 14 7.34497 14.52 7.35097 14.831H7.34997ZM19.44 16.572C18.47 17.56 17.114 18.12 15.645 18.122C14.175 18.126 12.818 17.57 11.848 16.584C11.3899 16.1242 11.0366 15.5709 10.812 14.962C10.6061 14.3891 10.5248 13.7789 10.5734 13.1721C10.6221 12.5653 10.7995 11.9758 11.094 11.443C11.3869 10.9163 11.7783 10.4509 12.247 10.072C13.189 9.304 14.388 8.889 15.643 8.887C16.899 8.885 18.098 9.297 19.041 10.062C19.521 10.453 19.911 10.916 20.193 11.429C20.4849 11.9547 20.6627 12.536 20.715 13.135C20.768 13.7489 20.6864 14.3669 20.476 14.946C20.2513 15.5558 19.8984 16.1103 19.441 16.572" fill="white"/>
</g>
<defs>
<clipPath id="clip0_34:14">
<rect width="24" height="24" fill="white"/>
</clipPath>
</defs>
</svg>
