<svg width="24" height="24" viewBox="0 0 24 24" fill="none" xmlns="http://www.w3.org/2000/svg">
<path d="M13.88 12.685C13.48 12.685 13.96 12.885 14.481 12.965C14.621 12.865 14.751 12.745 14.871 12.635C14.546 12.7064 14.2114 12.7233 13.881 12.685H13.88ZM16.021 12.155C16.251 11.825 16.421 11.465 16.491 11.095C16.431 11.365 16.291 11.595 16.161 11.825C15.411 12.295 16.091 11.555 16.161 11.265C15.361 12.275 16.051 11.865 16.021 12.155ZM16.802 10.105C16.852 9.384 16.662 9.604 16.602 9.884C16.672 9.924 16.732 10.384 16.802 10.104V10.105ZM12.38 0.31C12.58 0.35 12.83 0.38 12.8 0.43C13.03 0.38 13.08 0.33 12.37 0.31H12.38ZM12.8 0.43L12.65 0.46L12.79 0.45V0.43H12.8ZM19.423 10.374C19.443 11.014 19.223 11.324 19.043 11.874L18.693 12.055C18.413 12.595 18.723 12.405 18.523 12.835C18.083 13.225 17.183 14.055 16.903 14.136C16.702 14.136 17.043 13.886 17.093 13.796C16.502 14.196 16.612 14.396 15.722 14.646L15.692 14.586C13.471 15.626 10.389 13.566 10.439 10.744C10.409 10.914 10.369 10.874 10.319 10.944C10.2583 10.2263 10.4172 9.50716 10.7746 8.8819C11.132 8.25664 11.6709 7.75482 12.32 7.443C12.9189 7.1415 13.5943 7.0261 14.2594 7.11164C14.9244 7.19717 15.5487 7.47974 16.052 7.923C15.732 7.50811 15.3191 7.17429 14.8464 6.94846C14.3738 6.72264 13.8546 6.61115 13.331 6.623C12.151 6.633 11.05 7.383 10.68 8.193C10.08 8.573 10.01 9.663 9.74996 9.854C9.38896 12.455 10.41 13.576 12.13 14.896C12.4 15.086 12.21 15.106 12.25 15.246C11.6656 14.9687 11.1447 14.5738 10.72 14.086C10.95 14.416 11.19 14.746 11.52 14.996C10.97 14.816 10.25 13.696 10.04 13.646C10.97 15.306 13.82 16.567 15.301 15.946C14.5135 16.0018 13.7227 15.9067 12.971 15.666C12.641 15.506 12.201 15.156 12.271 15.096C13.2387 15.5031 14.2987 15.6401 15.3381 15.4921C16.3774 15.3442 17.3572 14.917 18.173 14.256C18.613 13.906 19.103 13.316 19.243 13.306C19.043 13.626 19.283 13.466 19.123 13.746C19.563 13.026 18.923 13.446 19.583 12.506L19.823 12.836C19.733 12.236 20.563 11.515 20.483 10.574C20.673 10.274 20.683 10.874 20.483 11.544C20.773 10.804 20.563 10.694 20.633 10.084C20.713 10.284 20.813 10.504 20.863 10.714C20.683 10.014 21.063 9.514 21.143 9.114C21.053 9.064 20.863 9.414 20.823 8.584C20.823 8.214 20.923 8.384 20.963 8.304C20.883 8.254 20.703 7.984 20.583 7.443C20.663 7.313 20.803 7.773 20.923 7.783C20.843 7.363 20.723 7.033 20.723 6.703C20.383 6.023 20.603 6.803 20.323 6.403C19.983 5.312 20.623 6.153 20.663 5.663C21.203 6.433 21.503 7.623 21.644 8.123C21.544 7.523 21.364 6.923 21.154 6.363C21.314 6.433 20.894 5.122 21.364 5.993C20.7414 4.11893 19.4332 2.54965 17.702 1.6C17.882 1.77 18.122 1.99 18.032 2.02C17.282 1.57 17.412 1.54 17.302 1.35C16.692 1.1 16.652 1.37 16.242 1.35C15.082 0.73 14.862 0.8 13.8 0.4L13.85 0.63C13.08 0.38 12.95 0.73 12.12 0.63C12.07 0.59 12.39 0.49 12.65 0.45C11.909 0.55 11.949 0.31 11.219 0.48C11.389 0.35 11.579 0.27 11.769 0.16C11.169 0.2 10.329 0.51 10.589 0.23C9.59996 0.68 7.84696 1.3 6.86696 2.22L6.83795 2C6.38796 2.54 4.87795 3.611 4.75796 4.311L4.62696 4.341C4.39696 4.741 4.24696 5.191 4.05696 5.602C3.75696 6.122 3.60696 5.802 3.65696 5.882C3.05696 7.102 2.75696 8.133 2.49696 8.984C2.67696 9.254 2.49696 10.634 2.56696 11.744C2.26696 17.207 6.40696 22.52 10.93 23.75C11.6 23.98 12.58 23.98 13.42 24C12.43 23.72 12.3 23.85 11.34 23.51C10.64 23.19 10.49 22.81 9.99996 22.38L10.2 22.73C9.22895 22.39 9.62995 22.31 8.83895 22.06L9.04895 21.79C8.73896 21.76 8.21896 21.26 8.07896 20.98L7.73896 20.99C7.32896 20.489 7.10896 20.119 7.12896 19.829L7.01796 20.029C6.88796 19.819 5.49796 18.128 6.21796 18.518C6.08795 18.398 5.90796 18.318 5.71796 17.968L5.85795 17.798C5.50796 17.358 5.21796 16.778 5.23796 16.598C5.43796 16.838 5.55796 16.898 5.68796 16.928C4.80796 14.756 4.75796 16.808 4.08696 14.726L4.23696 14.706C4.13696 14.546 4.05696 14.366 3.97696 14.196L4.03696 13.596C3.40696 12.856 3.85696 10.494 3.94696 9.194C4.01696 8.654 4.47696 8.094 4.82696 7.213L4.61696 7.173C5.01696 6.463 6.95795 4.301 7.85795 4.412C8.28795 3.862 7.76796 4.412 7.67796 4.272C8.63796 3.281 8.93796 3.572 9.57896 3.392C10.279 2.991 8.97896 3.552 9.30896 3.241C10.509 2.941 10.159 2.541 11.73 2.391C11.89 2.491 11.34 2.531 11.21 2.651C12.21 2.161 14.361 2.281 15.772 2.921C17.402 3.691 19.233 5.932 19.303 8.053L19.383 8.073C19.343 8.923 19.513 9.894 19.213 10.784L19.413 10.364L19.423 10.374ZM9.53996 13.236L9.48995 13.516C9.74996 13.866 9.95996 14.246 10.29 14.526C10.05 14.056 9.86996 13.866 9.53996 13.226V13.236ZM10.16 13.206C10.02 13.056 9.93996 12.866 9.84996 12.686C9.92996 13.006 10.11 13.286 10.28 13.566L10.16 13.206ZM21.105 10.824L21.035 10.974C20.935 11.734 20.695 12.485 20.345 13.186C20.745 12.456 20.995 11.645 21.095 10.824H21.105ZM12.45 0.12C12.72 0.02 13.11 0.07 13.4 0C13.03 0.03 12.66 0.05 12.3 0.1L12.45 0.12ZM3.00596 5.142C3.07596 5.712 2.57596 5.942 3.11596 5.562C3.41596 4.902 3.00596 5.382 3.01596 5.142H3.00596ZM2.37596 7.803C2.49596 7.413 2.52596 7.183 2.57596 6.963C2.22596 7.403 2.40596 7.493 2.37596 7.793" fill="white"/>
</svg>
