<svg width="275" height="236" viewBox="0 0 275 236" fill="none" xmlns="http://www.w3.org/2000/svg">
<path d="M101.701 55.5354V82.6686L34.6918 108.99L101.701 136.253V162.843L0 121.436V97.2176L101.701 55.5354ZM170.905 80.0991C170.905 73.1665 163.478 68.8101 157.568 72.2764C151.658 75.7427 151.658 84.4555 157.568 87.9218C163.478 91.3881 170.905 87.0317 170.905 80.0991ZM146.672 101.4C126.631 91.9713 126.631 68.2726 146.672 58.8443C166.712 49.416 191.9 61.2654 191.9 80.1219C191.9 98.9785 166.712 110.828 146.672 101.4ZM254.006 156.678C254.006 149.746 246.578 145.389 240.668 148.856C234.758 152.322 234.758 161.035 240.668 164.501C246.578 167.967 254.006 163.611 254.006 156.678ZM229.772 177.979C209.731 168.55 209.731 144.852 229.772 135.423C249.813 125.995 275 137.845 275 156.701C275 175.558 249.813 187.407 229.772 177.979ZM168.19 181.288L272.609 54.7124H236.93L130.771 181.288H168.19Z" fill="white"/>
</svg>
