<svg width="24" height="24" viewBox="0 0 24 24" fill="none" xmlns="http://www.w3.org/2000/svg">
<g clip-path="url(#clip0_17:34)">
<path d="M24 18.588C23.6507 18.7201 23.2651 18.7198 22.916 18.5872C22.5669 18.4546 22.2785 18.1988 22.105 17.868L18.655 13.097L18.155 12.43L14.152 17.874C13.989 18.1909 13.7162 18.4375 13.3845 18.5678C13.0529 18.6981 12.6851 18.7032 12.35 18.582L17.508 11.662L12.71 5.41102C13.055 5.2867 13.4323 5.28505 13.7784 5.40636C14.1244 5.52766 14.4181 5.76451 14.61 6.07702L18.186 10.907L21.782 6.09702C21.9463 5.78581 22.2192 5.54581 22.5488 5.42265C22.8785 5.29949 23.2419 5.30176 23.57 5.42902L21.708 7.90002L19.186 11.183C19.116 11.2455 19.0599 11.3221 19.0216 11.4077C18.9832 11.4934 18.9633 11.5862 18.9633 11.68C18.9633 11.7739 18.9832 11.8667 19.0216 11.9523C19.0599 12.038 19.116 12.1145 19.186 12.177L23.99 18.589L24 18.588ZM0.002012 11.576L0.422012 9.50102C1.57601 5.39802 6.28001 3.69102 9.51601 6.23102C11.411 7.72002 11.884 9.82802 11.791 12.204H1.11601C0.943012 16.447 4.00501 19.009 7.92001 17.7C8.55467 17.4716 9.12275 17.0893 9.57337 16.5873C10.024 16.0854 10.3431 15.4796 10.502 14.824C10.709 14.158 11.05 14.044 11.676 14.236C11.5717 15.0484 11.2845 15.8266 10.8361 16.5119C10.3876 17.1973 9.78963 17.7721 9.08701 18.193C7.92643 18.8279 6.59484 19.0795 5.28264 18.9119C3.97043 18.7443 2.74481 18.1661 1.78101 17.26C0.828041 16.1874 0.252088 14.8325 0.141012 13.402C0.141012 13.167 0.061012 12.947 0.007012 12.736C0.00214403 12.3497 -0.000189357 11.9634 1.19963e-05 11.577L0.002012 11.576ZM1.12901 11.29H10.783C10.723 8.21402 8.78201 6.03202 6.19301 6.01202C3.31101 5.97202 1.24901 8.10602 1.12201 11.276L1.12901 11.29Z" fill="white"/>
</g>
<defs>
<clipPath id="clip0_17:34">
<rect width="24" height="24" fill="white"/>
</clipPath>
</defs>
</svg>
