<svg width="24" height="24" viewBox="0 0 24 24" fill="none" xmlns="http://www.w3.org/2000/svg">
<path d="M15.852 8.981H11.264V0H15.852C18.328 0 20.342 2.014 20.342 4.49C20.342 6.966 18.328 8.981 15.852 8.981V8.981ZM12.735 7.51H15.852C17.517 7.51 18.871 6.155 18.871 4.491C18.871 2.827 17.516 1.472 15.852 1.472H12.735V7.51V7.51ZM12.735 8.981H8.14801C5.67201 8.981 3.65801 6.967 3.65801 4.491C3.65801 2.015 5.67201 0 8.14801 0H12.736V8.981H12.735ZM8.14801 1.471C6.48301 1.471 5.12901 2.826 5.12901 4.49C5.12901 6.154 6.48301 7.51 8.14801 7.51H11.265V1.471H8.14801ZM12.735 16.49H8.14801C5.67201 16.49 3.65801 14.476 3.65801 12C3.65801 9.524 5.67201 7.51 8.14801 7.51H12.736V16.49H12.735ZM8.14801 8.981C6.48301 8.981 5.12901 10.336 5.12901 12C5.12901 13.664 6.48401 15.019 8.14801 15.019H11.265V8.981H8.14801ZM8.17201 24C5.68301 24 3.65701 21.986 3.65701 19.51C3.65701 17.034 5.67101 15.02 8.14701 15.02H12.735V19.461C12.735 21.964 10.688 24 8.17201 24V24ZM8.14801 16.49C7.34765 16.4911 6.58037 16.8095 6.01443 17.3754C5.44848 17.9414 5.13007 18.7086 5.12901 19.509C5.12901 21.174 6.49401 22.528 8.17301 22.528C9.87801 22.528 11.266 21.152 11.266 19.46V16.49H8.14801V16.49ZM15.852 16.49H15.754C13.278 16.49 11.264 14.476 11.264 12C11.264 9.524 13.278 7.51 15.754 7.51H15.852C18.328 7.51 20.342 9.524 20.342 12C20.342 14.476 18.328 16.49 15.852 16.49V16.49ZM15.755 8.981C14.09 8.981 12.736 10.336 12.736 12C12.736 13.664 14.091 15.019 15.755 15.019H15.853C17.518 15.019 18.872 13.664 18.872 12C18.872 10.336 17.517 8.981 15.853 8.981H15.755V8.981Z" fill="white"/>
</svg>
