<svg width="24" height="24" viewBox="0 0 24 24" fill="none" xmlns="http://www.w3.org/2000/svg">
<path d="M7.172 20.36C6.258 19.64 5.282 18.95 4.616 17.98C3.214 16.268 2.134 14.286 1.396 12.203C0.949997 10.848 0.795997 9.39502 0.221997 8.09302C-0.380003 7.14902 0.324997 6.11502 1.36 5.81302C1.82 5.72602 2.632 5.29102 1.653 5.60202C0.774997 6.24602 0.689997 5.01702 1.59 4.94002C2.205 4.85802 2.43 4.35502 2.22 3.90302C1.56 3.47302 3.82 3.00002 2.683 2.35902C1.5 1.08002 4.34 0.835021 3.64 2.28502C3.473 3.40002 5.624 2.08002 5.125 3.36802C5.632 3.98702 7.025 3.50802 6.99 4.37702C7.73 4.42702 7.983 5.04902 8.677 5.09702C9.397 5.42202 10.699 5.67702 10.943 6.48702C10.23 7.05302 8.579 5.32202 8.5 6.88502C8.715 9.19502 8.66 11.574 9.504 13.773C9.904 15.105 10.874 16.153 11.748 17.191C12.585 18.207 13.719 18.921 14.875 19.524C15.889 20.002 16.982 20.319 18.088 20.518C18.536 20.175 19.328 18.901 20.026 19.438C20.059 20.042 18.638 20.701 19.959 20.634C20.735 20.4 21.273 21.234 21.912 20.482C22.5 21.179 24.358 20.036 23.939 21.462C23.373 21.826 22.547 21.606 21.98 22.108C21.045 21.641 20.3 22.526 19.265 22.414C18.1144 22.6129 16.9486 22.71 15.781 22.704C13.869 22.554 11.916 22.49 10.097 21.824C9.073 21.527 8.074 20.943 7.173 20.36H7.172ZM8.787 21.06C9.787 21.492 10.765 21.948 11.861 22.086C13.601 22.326 15.398 22.7 17.144 22.36C16.354 22.003 15.536 22.5 14.749 22.105C13.805 22.308 12.792 22.053 11.832 21.928C10.74 21.442 9.562 21.108 8.541 20.476C7.264 20.01 9.201 21.074 9.546 21.161C10.344 21.614 8.669 20.928 8.432 20.74C7.764 20.365 7.678 20.443 8.366 20.824C8.505 20.904 8.642 20.99 8.786 21.059L8.787 21.06ZM6.883 19.714C7.853 20.073 6.879 19.032 6.433 19.092C6.237 18.751 5.682 18.535 6.073 18.352C5.369 18.596 5.336 17.422 5.003 17.589C4.259 17.354 4.713 16.519 3.827 16.009C3.746 15.469 2.945 15.001 2.689 14.187C2.576 13.771 1.784 12.574 2.271 13.687C2.685 14.759 3.414 15.677 4.021 16.594C4.491 17.467 5.048 18.38 5.906 18.924C6.196 19.202 6.474 19.627 6.883 19.714V19.714ZM4.09 16.647C4.123 16.501 4.267 16.964 4.09 16.647V16.647ZM8.044 20.144C8.259 20.048 7.734 20.024 8.044 20.144V20.144ZM8.57 20.336C8.516 20.071 8.33 20.484 8.57 20.336V20.336ZM9.23 20.611C9.542 20.311 8.746 20.423 9.23 20.611V20.611ZM10.357 21.241C10.548 20.959 9.747 21.134 10.357 21.241V21.241ZM8.19 19.728C8.677 19.413 7.56 19.724 8.19 19.728V19.728ZM8.684 19.974C8.67 19.808 8.508 20.049 8.684 19.974V19.974ZM11.154 21.516C11.551 21.766 13.474 22.066 12.269 21.619C12.069 21.661 10.039 21.045 11.153 21.516H11.154ZM7.233 18.462C7.193 18.295 6.617 18.277 7.233 18.462V18.462ZM8.383 19.132C8.683 18.922 7.762 18.972 8.383 19.132V19.132ZM9.349 19.725C9.779 19.563 8.653 19.562 9.349 19.725V19.725ZM6.765 17.952C7.231 18.31 8.645 17.998 7.479 17.739C6.949 17.456 5.752 17.263 6.567 17.909L6.765 17.952ZM10.005 19.93C10.198 19.6 9.19 19.74 10.005 19.93V19.93ZM9.021 19.147C10.161 19.47 8.063 18.427 8.74 19.029L8.89 19.097L9.02 19.147H9.021ZM10.994 20.287C12.074 20.297 10.019 20.14 10.994 20.287V20.287ZM6.35 17.327C6.308 17.127 6.084 17.345 6.35 17.327V17.327ZM12.82 21.312C12.848 20.949 12.467 21.582 12.82 21.312V21.312ZM8.19 18.456C8.126 18.265 7.854 18.448 8.19 18.456V18.456ZM6.452 17.202C7.072 17.165 5.604 16.929 6.452 17.202V17.202ZM4.392 15.87C4.315 15.573 3.718 15.336 4.392 15.87V15.87ZM9.799 19.305C9.685 19.175 9.745 19.333 9.799 19.305V19.305ZM13.165 21.37C13.155 21.173 12.982 21.445 13.165 21.37V21.37ZM9.501 18.997C9.561 18.742 8.973 18.92 9.501 18.997V18.997ZM6.995 17.405C7.455 17.355 6.255 17.094 6.995 17.405V17.405ZM11.236 20.042C11.954 19.757 10.536 19.902 11.236 20.042V20.042ZM9.03 18.545C9.857 18.651 8.045 17.982 8.849 18.485L9.03 18.545ZM11.906 20.313C12.679 19.851 12.424 21.395 13.217 20.443C13.999 19.873 12.542 21.15 13.507 20.546C14.203 20.079 15.233 20.766 15.883 20.991C16.351 20.968 16.806 21.396 17.286 21.136C18.209 20.886 15.48 20.766 16.196 20.326C15.351 20.571 14.726 20.032 14.311 19.491C13.363 19.271 12.267 18.788 11.794 17.949C11.602 17.634 12.074 17.993 11.628 17.479C11.058 16.971 10.772 16.394 10.388 15.777C9.931 15.533 9.878 14.814 9.831 15.753C9.835 15.16 9.278 14.761 9.143 14.927C9.141 14.356 9.738 14.642 9.319 14.22C9.229 13.628 8.933 13.01 8.844 12.343C8.706 12.021 8.824 11.332 8.371 12.061C8.206 12.831 8.316 11.114 8.573 11.681C8.91 11.101 8.453 11.171 8.433 11.251C8.653 10.763 8.573 10.071 8.376 10.335C8.493 9.81802 8.561 8.43302 8.201 8.67902C8.419 8.13902 8.615 6.20602 7.667 6.94302C7.283 6.94802 6.619 7.08302 6.304 7.23902C7.29 7.78202 6.204 7.43502 5.804 7.34902C5.752 7.85102 5.354 7.63402 4.858 7.63902C5.651 7.73702 4.472 8.44902 4.017 8.17302C3.427 8.45502 4.527 9.16002 4.029 9.37802C4.089 9.70602 3.124 9.25802 3.199 10.018C2.626 9.77702 3.121 10.918 3.408 10.532C4.383 10.796 4.094 11.398 4.118 11.969C3.96 12.302 3.334 11.186 3.978 11.238C3.471 10.411 3.417 10.938 2.994 11.323C2.894 11.351 4.073 11.87 3.334 12.126C3.984 12.226 4.002 12.796 4.134 13.156C4.524 13.563 4.444 12.706 4.913 13.196C4.617 12.76 3.346 11.968 4.369 12.222C4.364 11.782 4.184 11.429 4.498 11.438C4.808 10.876 4.173 12.825 4.873 12.11C5.066 12.025 5.113 11.547 5.463 12.155C5.968 12.653 5.645 13.013 4.932 12.558C5.059 12.991 5.886 13.145 5.731 13.823C5.896 14.418 6.126 14.199 6.327 14.165C6.485 14.743 6.574 14.318 6.582 14.042C7.302 14.197 7.134 14.622 7.36 14.922C7.857 15.146 6.648 13.4 7.502 14.396C8.4 15.206 7.839 15.546 7.032 15.416C7.542 15.375 7.707 16.106 8.345 16.08C8.927 16.357 9.32 17.42 8.318 16.977C7.97 16.664 6.738 16.277 7.745 16.873C8.674 17.303 9.41 17.561 10.306 18.1C10.946 18.558 11.224 19.082 11.466 19.186C10.928 19.443 9.843 18.98 10.649 18.838C10.146 18.747 9.581 18.493 10.062 19.118C10.472 19.461 11.512 19.424 11.699 19.463C11.54 19.811 11.269 19.839 11.705 19.866C11.219 20.126 11.861 20.166 11.906 20.314V20.313ZM10.912 17.505C10.616 17.195 10.539 16.615 10.859 17.12C11.023 17.186 11.384 18.067 10.912 17.505ZM14.15 19.562C14.335 19.551 14.156 19.702 14.15 19.562V19.562ZM10.444 16.746C10.434 16.278 10.551 17.106 10.444 16.746V16.746ZM10.122 16.313C9.75 15.593 10.592 16.517 10.122 16.313V16.313ZM6.222 13.621C6.441 13.561 6.33 13.995 6.222 13.621V13.621ZM9.326 15.303C9.46 14.799 9.484 15.727 9.326 15.303V15.303ZM7.134 13.778C6.979 13.5 7.457 14.038 7.134 13.778V13.778ZM9.016 14.382C8.664 13.592 9.266 13.95 9.094 14.512L9.016 14.382ZM5.77 12.217C5.612 11.957 5.352 11.197 5.436 10.965C5.512 11.343 6.24 12.592 5.793 11.483C5.299 10.553 6.383 11.785 6.495 12.017C6.545 12.247 6.19 11.954 6.431 12.495C5.991 11.878 6.171 12.835 5.77 12.217ZM4.767 11.526C4.807 10.923 4.997 11.939 4.767 11.526V11.526ZM5.217 11.681C5.433 11.226 5.583 12.315 5.217 11.681V11.681ZM4.133 10.841C3.759 10.471 3.489 10.128 4.15 10.611C4.405 10.621 3.584 9.83302 4.21 10.361C4.87 10.481 4.537 11.443 4.133 10.841ZM4.703 10.826C4.92 10.611 4.818 11.038 4.703 10.826V10.826ZM5.053 10.939C4.725 10.322 5.453 11.197 5.053 10.939V10.939ZM4.356 10.272C3.27 9.30602 5.721 10.778 4.533 10.452L4.356 10.272ZM7.466 12.08C6.996 11.798 7.343 10.096 7.503 11.26C7.96 11.112 7.478 11.86 7.818 11.854C7.765 12.327 7.612 12.497 7.468 12.08H7.466ZM8.616 12.76C8.664 12.247 8.715 13.11 8.616 12.76V12.76ZM8.416 12.562C8.47 12.342 8.423 12.82 8.416 12.562V12.562ZM4.57 9.95502C3.873 8.99202 6.597 10.928 5.017 10.199C4.852 10.156 4.653 10.139 4.57 9.95502ZM6.786 11.13C6.72 10.32 6.933 11.264 6.786 11.13V11.13ZM8.468 12.209C8.598 11.747 8.478 12.514 8.468 12.209V12.209ZM4.676 9.58702C5.091 9.49902 6.394 10.316 5.196 9.82102C5.064 9.67302 4.78 9.74102 4.676 9.58702ZM8.236 11.362C8.28 10.532 8.484 10.867 8.238 11.48L8.236 11.362ZM4.985 9.29902C5.154 9.05102 4.535 8.17902 5.074 8.98602C5.306 9.17102 5.746 9.29602 5.357 9.37302C5.967 9.91202 5.207 9.51902 4.985 9.29902V9.29902ZM8.06 11.103C8.177 10.159 8.163 11.656 8.06 11.103V11.103ZM4.632 8.42702C4.761 8.37202 4.7 8.59902 4.632 8.42702V8.42702ZM5.434 8.90502C5.64 8.47102 5.814 9.38802 5.434 8.90502V8.90502ZM7.697 10.164C7.695 9.99702 7.74 10.406 7.697 10.164V10.164ZM7.566 9.87402C7.252 9.09802 7.858 10.284 7.566 9.87402V9.87402ZM7.373 9.36402C7.32 9.04402 7.553 9.76802 7.373 9.36402V9.36402ZM7.687 8.85402C7.471 8.47402 7.959 7.18102 8.013 7.98402C7.786 8.60902 7.948 8.95902 8.106 8.12002C8.399 7.46002 8.043 9.42302 7.686 8.85502L7.687 8.85402ZM8.009 6.93102C8.103 6.81602 8.029 7.07002 8.009 6.93102V6.93102ZM7.47 17.544C7.342 17.433 7.486 17.614 7.47 17.544V17.544ZM8.58 18.104C9.195 18.264 9.192 18.009 8.635 17.934C8.335 17.654 7.389 17.359 8.235 17.899C8.292 18.041 8.47 18.038 8.579 18.105L8.58 18.104ZM6.389 16.65C6.729 16.903 7.669 17.369 6.873 16.746C7.142 16.434 6.359 16.268 6.619 16.06C5.959 15.656 6.099 15.692 6.561 15.704C5.767 15.35 6.675 15.376 6.631 15.194C6.326 15.134 5.111 14.654 5.827 15.234C5.101 14.864 5.654 15.372 5.435 15.318C4.692 15.116 6.095 15.883 5.317 15.693C5.742 16.03 6.463 16.557 5.497 16.05C5.369 16.233 6.187 16.51 6.389 16.65V16.65ZM7.549 17.317C8.959 17.771 6.858 16.761 7.549 17.317V17.317ZM13.489 20.915C13.509 20.635 13.296 21.155 13.489 20.915V20.915ZM14.1 21.172C14.425 20.857 14.113 21.675 14.64 21.095C14.645 20.68 14.623 20.435 14.034 20.939C13.872 21.029 13.8 21.412 14.1 21.172ZM4.408 15.085C4.308 14.692 3.708 14.695 4.408 15.085V15.085ZM5.06 15.513C4.818 15.111 4.196 15.149 5.06 15.513V15.513ZM8.77 17.75C9.132 18.07 10.432 17.986 9.21 17.79C9.028 17.52 8.059 17.586 8.77 17.75ZM13.867 20.899C14.425 20.431 13.327 21.107 13.867 20.899V20.899ZM15.027 21.695C15.03 21.545 14.787 21.761 15.027 21.695V21.695ZM15.028 21.485C15.645 20.831 14.43 21.524 15.028 21.485V21.485ZM2.805 13.743C2.279 12.993 2.478 12.655 1.97 12.043C1.874 11.573 1.1 10.51 1.57 11.637C2 12.296 2.128 13.316 2.805 13.743V13.743ZM14.835 21.277C15.97 20.543 14.369 20.957 14.835 21.277V21.277ZM15.701 21.617C16.271 21.129 15.341 21.515 15.701 21.617V21.617ZM4.215 14.255C4.378 14.013 3.795 14.224 4.215 14.255V14.255ZM15.52 21.384C16.071 21.029 15.394 21.084 15.42 21.416L15.52 21.384ZM8.05 16.674C8.03 16.434 7.759 16.694 8.05 16.674V16.674ZM8.51 16.941C8.365 16.644 8.286 16.988 8.51 16.941V16.941ZM16.404 21.625C17.109 21.115 15.976 21.527 16.256 21.721L16.404 21.625ZM16.134 21.495C16.708 21.013 15.527 21.708 16.134 21.495V21.495ZM17.514 22.413C17.9 22.155 17.045 22.33 17.514 22.413V22.413ZM4.57 14.08C5.087 14.196 6.636 15.354 5.722 14.16C5.254 14.022 5.535 12.877 5.057 13.08C5.377 13.615 5.321 13.843 4.647 13.506C3.802 13.093 4.173 13.71 4.337 13.88C4.113 13.932 4.636 14.076 4.57 14.08ZM2.214 12.22C2.306 11.837 1.361 10.113 1.768 11.356C1.914 11.616 1.898 12.11 2.214 12.22ZM6.538 14.886C6.272 14.663 6.525 14.854 6.538 14.886V14.886ZM7.194 15.038C7.194 14.633 6.469 14.874 7.194 15.038V15.038ZM12.875 18.621C12.767 18.343 12.447 18.615 12.875 18.621V18.621ZM13.148 18.82C13.108 18.665 12.991 18.85 13.148 18.82V18.82ZM15.4 20.24C15.616 20.08 15.13 20.22 15.4 20.24V20.24ZM3.39 12.52C4.01 12.28 2.726 12.35 3.39 12.52V12.52ZM12.374 18.182C12.367 17.781 11.979 18.282 12.374 18.182V18.182ZM3.144 11.951C3.543 11.816 2.777 11.861 3.144 11.951V11.951ZM4.3 12.511C4.293 12.378 4.178 12.561 4.3 12.511V12.511ZM18.39 21.151C18.902 21.047 20.068 21.411 20.256 21.015C19.636 21 18.106 20.577 18.034 21.115L18.17 21.138L18.39 21.151V21.151ZM4.667 12.603C4.676 12.196 4.35 12.588 4.667 12.603V12.603ZM1.63 10.495C1.492 9.72002 1.105 10.377 1.63 10.495V10.495ZM2.354 10.677C2.363 10.427 1.691 10.453 2.354 10.677V10.677ZM2.768 10.88C2.648 10.783 2.674 11.002 2.768 10.88V10.88ZM5.373 12.55C5.495 12.438 5.083 12.467 5.373 12.55V12.55ZM2.493 10.422C2.423 9.83702 1.653 10.334 2.493 10.422V10.422ZM1.007 9.45802C0.986997 9.18802 0.862997 9.56002 1.007 9.45802V9.45802ZM1.227 9.29102C1.192 8.97102 1.037 9.33102 1.227 9.29102V9.29102ZM2.447 10.02C2.965 9.81702 1.507 9.60002 2.343 9.98002L2.447 10.02ZM18.781 20.109C19.111 19.806 18.361 20.015 18.781 20.109V20.109ZM20.755 21.132C20.887 20.74 20.421 21.182 20.755 21.132V21.132ZM2.573 9.38002C2.628 9.00002 2.163 9.45502 2.573 9.38002V9.38002ZM0.836997 8.21802C0.743997 7.68302 0.756997 6.74402 1.649 7.06202C0.457997 7.29802 2.473 8.54202 2.219 7.56002C2.719 7.58402 3.199 7.26402 2.935 7.75002C3.922 7.64002 4.605 6.78602 5.559 6.90502C6.301 6.80702 7.113 6.73302 7.913 6.43402C8.571 6.38602 9.203 5.67802 8.843 5.25902C7.947 5.18302 7.008 5.29502 6.016 5.49202C4.918 5.72002 3.92 6.15402 2.811 6.34102C1.731 6.48602 3.028 6.74102 2.719 6.79702C2.155 6.99302 3.391 7.12502 2.646 7.33102C2.186 7.24302 1.706 7.08502 1.903 6.60102C0.867997 6.73402 -0.0420034 7.16402 0.775997 8.21702H0.835997L0.836997 8.21802ZM3.331 6.94802C3.574 6.05402 4.631 7.68302 3.729 7.06602C3.621 6.98602 3.444 6.92002 3.331 6.94602V6.94802ZM3.378 6.51402C3.728 6.25402 3.564 6.66002 3.378 6.51402V6.51402ZM3.823 6.52202C3.855 6.11102 4.841 6.74002 3.986 6.67002L3.823 6.52202ZM4.431 6.27702C4.653 6.01702 4.495 6.50702 4.431 6.27702V6.27702ZM4.587 6.17302C4.957 5.72902 6.682 5.89002 5.419 6.13002C5.081 5.87502 4.821 6.28002 4.587 6.17302ZM6.837 5.82602C6.782 4.61202 7.956 6.25802 6.837 5.82602V5.82602ZM7.477 5.82202C7.71 5.21002 8.383 5.57702 7.585 5.69902C7.602 5.76402 7.561 6.01502 7.477 5.82202ZM2.322 9.06702C3.019 8.64002 1.581 8.69702 2.322 9.06702V9.06702ZM2.837 9.21102C3.082 8.95102 2.306 9.10502 2.837 9.21102V9.21102ZM1.317 8.13102C1.716 7.82602 0.845997 8.01502 1.317 8.13102V8.13102ZM21.919 21.021C21.931 20.666 21.615 21.181 21.919 21.021V21.021ZM19.826 19.591C19.886 19.183 19.556 19.628 19.826 19.591V19.591ZM22.496 21.159C23.053 21.159 24.184 20.986 22.971 20.986C22.781 21.016 21.862 21.01 22.495 21.159H22.496ZM3.29 8.95902C3.74 8.92902 3.996 8.46202 3.203 8.48902C1.973 8.36202 4.287 8.90902 3.045 8.75302C2.878 8.86302 3.281 8.99002 3.29 8.96002V8.95902ZM3.688 9.16102C3.64 8.87102 3.548 9.31502 3.688 9.16102V9.16102ZM4.158 7.90402C4.355 7.66102 3.888 7.83902 4.158 7.90402V7.90402ZM2.658 5.39602C3.464 5.12202 4.565 4.81502 4.945 5.53102C4.558 5.06502 4.789 4.60702 5.155 5.28802C5.671 5.97702 5.93 4.97502 5.593 4.74302C5.976 5.21902 6.412 5.44302 5.85 4.77302C6.46 4.03902 4.627 4.87002 4.21 4.86102C4.01 4.95102 2.139 5.33802 2.659 5.39602H2.658ZM3.13 4.49302C3.59 4.14602 4.718 4.69902 3.994 4.14802C3.924 4.08602 2.408 4.56602 3.13 4.49302ZM4.804 4.56202C5.342 4.57502 4.573 3.84002 5.213 4.17202C5.108 3.82902 4.467 3.76502 4.153 3.62802C3.977 3.94202 4.513 4.56602 4.803 4.56202H4.804ZM3.424 3.04202C3.61 2.79002 3.098 3.17002 3.424 3.04202V3.04202ZM4.108 3.20602C4.974 3.09102 3.888 2.83302 3.934 3.19602L4.108 3.20602ZM2.831 2.20602C2.221 1.41002 3.977 2.34002 3.358 1.50602C2.836 1.09102 2.335 1.97402 2.831 2.20602ZM10.655 6.42102C10.935 5.92502 9.5 5.75302 10.467 6.24602C10.557 6.27602 10.537 6.45602 10.655 6.42102Z" fill="white"/>
</svg>
