<svg width="24" height="24" viewBox="0 0 24 24" fill="none" xmlns="http://www.w3.org/2000/svg">
<g clip-path="url(#clip0_40:6)">
<path d="M24 5.457V19.366C24 20.27 23.268 21.002 22.364 21.002H18.545V11.73L12 16.64L5.455 11.73V21.003H1.636C1.42107 21.003 1.20825 20.9606 1.0097 20.8784C0.811145 20.7961 0.63075 20.6755 0.47882 20.5235C0.32689 20.3714 0.206404 20.191 0.124246 19.9924C0.0420884 19.7938 -0.000131068 19.5809 3.05652e-07 19.366V5.457C3.05652e-07 3.434 2.309 2.279 3.927 3.493L5.455 4.64L12 9.548L18.545 4.638L20.073 3.493C21.69 2.28 24 3.434 24 5.457Z" fill="white"/>
</g>
<defs>
<clipPath id="clip0_40:6">
<rect width="24" height="24" fill="white"/>
</clipPath>
</defs>
</svg>
