<svg width="24" height="24" viewBox="0 0 24 24" fill="none" xmlns="http://www.w3.org/2000/svg">
<path d="M22.018 13.298L18.099 15.516L14.584 12.023L18.127 8.502L22.018 10.704C22.2476 10.8339 22.4387 11.0223 22.5716 11.2502C22.7045 11.4781 22.7746 11.7372 22.7746 12.001C22.7746 12.2648 22.7045 12.5239 22.5716 12.7518C22.4387 12.9796 22.2476 13.1681 22.018 13.298ZM1.33698 0.923997C1.26277 1.10416 1.22471 1.29715 1.22498 1.492V22.509C1.22498 22.726 1.26998 22.928 1.34898 23.109L12.504 12.022L1.33698 0.923997ZM13.544 10.989L16.802 7.751L3.44998 0.194997C3.16379 0.0305329 2.83047 -0.0325367 2.50398 0.0159975L13.544 10.989V10.989ZM13.544 13.056L2.54398 23.989C2.84198 24.025 3.15598 23.973 3.44998 23.806L16.774 16.266L13.544 13.056V13.056Z" fill="white"/>
</svg>
