<svg width="24" height="24" viewBox="0 0 24 24" fill="none" xmlns="http://www.w3.org/2000/svg">
<path d="M8.85101 18.56C8.85101 18.56 7.93401 19.094 9.50401 19.274C11.406 19.492 12.378 19.461 14.473 19.063C14.473 19.063 15.025 19.409 15.794 19.709C11.095 21.722 5.16101 19.591 8.85101 18.56V18.56ZM8.27601 15.933C8.27601 15.933 7.24801 16.694 8.81801 16.857C10.85 17.066 12.454 17.084 15.231 16.549C15.231 16.549 15.615 16.938 16.218 17.151C10.539 18.812 4.21101 17.281 8.27601 15.933ZM13.116 11.475C14.274 12.808 12.812 14.008 12.812 14.008C12.812 14.008 15.751 12.49 14.401 10.59C13.14 8.818 12.173 7.938 17.408 4.902C17.408 4.901 9.19201 6.953 13.116 11.475V11.475ZM19.33 20.504C19.33 20.504 20.009 21.063 18.583 21.495C15.871 22.317 7.29501 22.564 4.91401 21.528C4.05801 21.155 5.66401 20.638 6.16801 20.53C6.69501 20.416 6.99601 20.437 6.99601 20.437C6.04301 19.766 0.840007 21.754 4.35301 22.324C13.933 23.877 21.815 21.624 19.33 20.504ZM9.29201 13.21C9.29201 13.21 4.93001 14.246 7.74801 14.622C8.93701 14.781 11.309 14.745 13.518 14.56C15.324 14.408 17.136 14.083 17.136 14.083C17.136 14.083 16.499 14.355 16.038 14.67C11.609 15.835 3.05201 15.293 5.51601 14.102C7.59801 13.096 9.29201 13.21 9.29201 13.21ZM17.116 17.584C21.619 15.244 19.537 12.995 18.084 13.299C17.729 13.373 17.569 13.437 17.569 13.437C17.569 13.437 17.701 13.23 17.954 13.14C20.829 12.129 23.04 16.121 17.026 17.702C17.026 17.701 17.096 17.64 17.116 17.584ZM14.401 0C14.401 0 16.895 2.494 12.036 6.33C8.14001 9.407 11.148 11.162 12.035 13.166C9.76101 11.113 8.09201 9.308 9.21101 7.627C10.855 5.158 15.408 3.962 14.401 0V0ZM9.73401 23.924C14.056 24.201 20.693 23.771 20.85 21.726C20.85 21.726 20.548 22.501 17.278 23.117C13.59 23.811 9.03901 23.73 6.34101 23.285C6.34101 23.284 6.89401 23.742 9.73401 23.924" fill="white"/>
</svg>
