<svg width="24" height="24" viewBox="0 0 24 24" fill="none" xmlns="http://www.w3.org/2000/svg">
<g clip-path="url(#clip0_34:4)">
<path d="M12.043 23.968C12.522 23.964 12.996 23.939 13.469 23.874C14.5526 23.7333 15.6113 23.4429 16.615 23.011C18.0257 22.4057 19.3119 21.5437 20.408 20.469C21.4172 19.4796 22.2432 18.3193 22.848 17.042C23.365 15.9428 23.709 14.7703 23.868 13.566C24.017 12.406 24.003 11.22 23.823 10.067C23.6727 9.10895 23.4064 8.17275 23.03 7.279C22.7899 6.71762 22.5043 6.17681 22.176 5.662C21.008 3.825 19.315 2.348 17.366 1.362C16.67 1.00648 15.943 0.715266 15.194 0.492H15.189C15.308 0.555 15.429 0.624 15.534 0.693C15.654 0.767 15.773 0.839 15.885 0.918C16.454 1.30004 16.9771 1.74631 17.444 2.248C18.507 3.393 19.241 4.796 19.662 6.289C19.946 7.271 20.096 8.287 20.157 9.306C20.201 10.049 20.201 10.797 20.11 11.535C19.961 12.805 19.556 14.045 18.882 15.131C18.3858 15.9402 17.7399 16.6475 16.979 17.215C15.735 18.143 14.102 18.697 12.543 18.329C12.2856 18.2685 12.035 18.182 11.795 18.071C11.5215 17.9463 11.2607 17.7956 11.016 17.621C10.5527 17.3114 10.1341 16.9396 9.77201 16.516C9.33276 15.9924 8.97876 15.4028 8.72301 14.769C8.40975 13.9581 8.24251 13.0982 8.22901 12.229C8.19901 10.956 8.45401 9.676 9.08301 8.559C9.50438 7.81551 10.0697 7.16347 10.746 6.641C10.971 6.463 11.21 6.308 11.45 6.162L11.466 6.155C10.9938 6.04705 10.5086 6.00664 10.025 6.035C9.60719 6.06287 9.19458 6.14351 8.79701 6.275C8.43801 6.395 8.09301 6.545 7.77801 6.725C7.52214 6.87186 7.27717 7.03695 7.04501 7.219C6.83401 7.399 6.62501 7.579 6.43001 7.774C5.30701 8.927 4.66201 10.456 4.40801 12.03C4.25801 13.003 4.25801 13.99 4.31701 14.98C4.42201 16.375 4.70801 17.767 5.26201 19.042C5.59944 19.83 6.05389 20.5626 6.61001 21.215C7.46096 22.1978 8.53492 22.9624 9.74201 23.445C10.4181 23.7214 11.1292 23.9031 11.855 23.985C11.929 24 12.004 24 12.064 24L12.043 23.968ZM9.10901 23.57C8.95447 23.5033 8.80419 23.4272 8.65901 23.342C7.90638 22.9361 7.21931 22.4189 6.62101 21.808C5.52701 20.671 4.79401 19.242 4.37401 17.728C4.09738 16.6911 3.93145 15.6279 3.87901 14.556C3.83468 13.862 3.85007 13.1654 3.92501 12.474C4.06001 11.217 4.42001 9.973 5.04901 8.894C5.50104 8.098 6.10718 7.40008 6.83201 6.841C7.32811 6.46078 7.87861 6.15738 8.46501 5.941C9.60046 5.52991 10.8414 5.51405 11.987 5.896C12.016 5.896 12.016 5.896 12.032 5.926C12.047 5.941 12.077 5.941 12.092 5.956C12.137 5.972 12.196 6.001 12.257 6.03C12.496 6.15 12.736 6.301 12.961 6.45C13.8679 7.08505 14.5912 7.94808 15.058 8.952C15.478 9.866 15.673 10.886 15.689 11.89C15.703 12.969 15.509 14.047 15.044 15.036C14.4769 16.2289 13.5557 17.2178 12.406 17.868C12.496 17.898 12.586 17.913 12.677 17.943C12.902 17.987 13.126 18.017 13.365 18.017C14.833 18.062 16.257 17.357 17.305 16.37C17.5 16.19 17.68 15.995 17.845 15.785C18.07 15.515 18.28 15.245 18.459 14.962C18.698 14.587 18.894 14.212 19.073 13.808C19.3018 13.2732 19.4725 12.7153 19.582 12.144C19.778 11.14 19.793 10.122 19.731 9.118C19.596 7.096 19.058 5.073 17.889 3.394C17.7162 3.1452 17.5309 2.90523 17.334 2.675C17.0061 2.30416 16.6508 1.95852 16.271 1.641C15.8473 1.29262 15.3909 0.986185 14.908 0.726C14.3632 0.475992 13.7969 0.275841 13.216 0.128L12.916 0.0679999C12.707 0.0379999 12.496 0.0239999 12.282 0.0079999C11.9437 -0.00700526 11.6047 -0.0016623 11.267 0.0239999C10.563 0.0689999 9.85501 0.184 9.15501 0.361C5.79901 1.227 2.86301 3.566 1.30001 6.67C0.801243 7.65883 0.443755 8.71278 0.238009 9.801C0.00107807 11.0456 -0.0340374 12.3202 0.134009 13.576C0.254009 14.596 0.508009 15.599 0.912009 16.553C1.13901 17.123 1.42301 17.677 1.73701 18.201C2.83101 19.984 4.42001 21.437 6.24701 22.441C6.93501 22.831 7.65501 23.131 8.40401 23.385C8.63001 23.459 8.85401 23.535 9.09301 23.595L9.10901 23.57Z" fill="white"/>
</g>
<defs>
<clipPath id="clip0_34:4">
<rect width="24" height="24" fill="white"/>
</clipPath>
</defs>
</svg>
