<svg width="24" height="24" viewBox="0 0 24 24" fill="none" xmlns="http://www.w3.org/2000/svg">
<g clip-path="url(#clip0_17:4)">
<path d="M19.125 1.02996e-05H4.875C4.23443 -0.00130774 3.59991 0.123888 3.00785 0.368413C2.4158 0.612938 1.87786 0.971977 1.42491 1.42493C0.971962 1.87787 0.612923 2.41581 0.368398 3.00787C0.123873 3.59993 -0.001323 4.23445 -4.95918e-06 4.87501V19.125C-4.95918e-06 21.825 2.175 24 4.875 24H11.475C14.175 24 16.35 21.825 16.35 19.125V16.65H19.125C21.825 16.65 24 14.475 24 11.775V4.87501C24 2.17501 21.825 1.02996e-05 19.125 1.02996e-05ZM16.5 1.27501H19.125C20.0798 1.27501 20.9954 1.65429 21.6706 2.32943C22.3457 3.00456 22.725 3.92023 22.725 4.87501V7.57501H16.5V1.27501V1.27501ZM15.075 9.00001V15.45H8.85V9.00001H15.075ZM8.85 1.20001H15.075V7.57501H8.85V1.20001ZM1.27499 4.80001C1.27499 3.84523 1.65428 2.92956 2.32941 2.25443C3.00454 1.57929 3.92022 1.20001 4.875 1.20001H7.5V7.57501H1.27499V4.80001ZM7.5 9.00001V15.45H1.2V9.00001H7.5ZM7.5 22.725H4.8C3.84522 22.725 2.92954 22.3457 2.25441 21.6706C1.57928 20.9955 1.2 20.0798 1.2 19.125V16.8H7.5V22.725ZM15.075 19.2C15.075 20.1548 14.6957 21.0705 14.0206 21.7456C13.3454 22.4207 12.4298 22.8 11.475 22.8H8.85V16.875H15.075V19.2V19.2ZM22.725 11.85C22.725 12.8048 22.3457 13.7205 21.6706 14.3956C20.9954 15.0707 20.0798 15.45 19.125 15.45H16.5V9.00001H22.725V11.85V11.85Z" fill="white"/>
</g>
<defs>
<clipPath id="clip0_17:4">
<rect width="24" height="24" fill="white"/>
</clipPath>
</defs>
</svg>
