<svg width="24" height="24" viewBox="0 0 24 24" fill="none" xmlns="http://www.w3.org/2000/svg">
<g clip-path="url(#clip0_17:22)">
<path d="M14.25 0.18L15.15 0.38L15.88 0.64L16.47 0.94L16.92 1.26L17.26 1.6L17.51 1.94L17.67 2.27L17.77 2.57L17.81 2.83L17.83 3.03L17.82 3.16V8.5L17.77 9.13L17.64 9.68L17.43 10.14L17.17 10.52L16.87 10.83L16.54 11.08L16.19 11.27L15.84 11.41L15.51 11.51L15.21 11.58L14.95 11.62L14.74 11.64H8.77L8.08 11.69L7.49 11.83L6.99 12.05L6.58 12.32L6.25 12.64L5.98 12.99L5.78 13.35L5.63 13.72L5.53 14.07L5.46 14.39L5.42 14.66L5.4 14.87V17.93H3.17L2.96 17.9L2.68 17.83L2.36 17.71L2.01 17.53L1.65 17.27L1.29 16.91L0.940002 16.45L0.620002 15.86L0.340002 15.13L0.130002 14.25L-0.00999756 13.2L-0.0599976 11.97L2.44007e-06 10.75L0.160002 9.71L0.400002 8.84L0.720002 8.13L1.08 7.56L1.48 7.12L1.9 6.79L2.32 6.55L2.72 6.39L3.08 6.29L3.4 6.24L3.64 6.23H3.8L3.86 6.24H12.02V5.41H6.18L6.17 2.66L6.15 2.29L6.2 1.95L6.31 1.64L6.48 1.36L6.73 1.1L7.04 0.87L7.42 0.67L7.86 0.49L8.37 0.34L8.95 0.22L9.59 0.12L10.3 0.06L11.07 0.02L11.91 0L13.18 0.05L14.25 0.18ZM7.95 2.16L7.72 2.49L7.64 2.9L7.72 3.31L7.95 3.65L8.28 3.87L8.69 3.96L9.1 3.87L9.43 3.65L9.66 3.31L9.74 2.9L9.66 2.49L9.43 2.16L9.1 1.94L8.69 1.85L8.28 1.94L7.95 2.16ZM21.04 6.11L21.32 6.17L21.64 6.29L21.99 6.47L22.35 6.74L22.71 7.09L23.06 7.56L23.38 8.15L23.66 8.88L23.87 9.76L24.01 10.8L24.06 12.03L24 13.26L23.84 14.3L23.6 15.16L23.28 15.87L22.92 16.44L22.52 16.89L22.1 17.22L21.68 17.46L21.28 17.62L20.92 17.71L20.6 17.76L20.36 17.78L20.2 17.77H11.98V18.59H17.82L17.83 21.35L17.85 21.71L17.8 22.05L17.69 22.36L17.52 22.65L17.27 22.9L16.96 23.14L16.58 23.34L16.14 23.51L15.63 23.66L15.05 23.79L14.41 23.88L13.7 23.95L12.93 23.99L12.09 24L10.82 23.96L9.75 23.82L8.85 23.62L8.12 23.37L7.53 23.07L7.08 22.74L6.74 22.4L6.49 22.06L6.33 21.73L6.23 21.43L6.19 21.18L6.17 20.98L6.18 20.85V15.51L6.23 14.87L6.36 14.33L6.57 13.87L6.83 13.49L7.13 13.17L7.46 12.93L7.81 12.73L8.16 12.59L8.49 12.49L8.79 12.43L9.05 12.39L9.26 12.37L9.39 12.36H15.23L15.92 12.31L16.51 12.17L17.01 11.96L17.42 11.68L17.75 11.36L18.02 11.01L18.22 10.65L18.37 10.29L18.47 9.94L18.54 9.62L18.58 9.34L18.6 9.13V6.07H20.69L20.83 6.08L21.04 6.11ZM14.57 20.36L14.34 20.69L14.26 21.1L14.34 21.51L14.57 21.84L14.9 22.07L15.31 22.15L15.72 22.07L16.05 21.84L16.28 21.51L16.36 21.1L16.28 20.69L16.05 20.36L15.72 20.13L15.31 20.05L14.9 20.13L14.57 20.36Z" fill="white"/>
</g>
<defs>
<clipPath id="clip0_17:22">
<rect width="24" height="24" fill="white"/>
</clipPath>
</defs>
</svg>
