<svg width="24" height="24" viewBox="0 0 24 24" fill="none" xmlns="http://www.w3.org/2000/svg">
<g clip-path="url(#clip0_17:8)">
<path d="M12.525 0.02C13.835 0 15.135 0.01 16.435 0C16.515 1.53 17.065 3.09 18.185 4.17C19.305 5.28 20.885 5.79 22.425 5.96V9.99C20.985 9.94 19.535 9.64 18.225 9.02C17.655 8.76 17.125 8.43 16.605 8.09C16.595 11.01 16.615 13.93 16.585 16.84C16.505 18.24 16.045 19.63 15.235 20.78C13.925 22.7 11.655 23.95 9.325 23.99C7.895 24.07 6.465 23.68 5.245 22.96C3.225 21.77 1.805 19.59 1.595 17.25C1.575 16.75 1.565 16.25 1.585 15.76C1.765 13.86 2.705 12.04 4.165 10.8C5.825 9.36 8.145 8.67 10.315 9.08C10.335 10.56 10.275 12.04 10.275 13.52C9.285 13.2 8.125 13.29 7.255 13.89C6.625 14.3 6.145 14.93 5.895 15.64C5.685 16.15 5.745 16.71 5.755 17.25C5.995 18.89 7.575 20.27 9.255 20.12C10.375 20.11 11.445 19.46 12.025 18.51C12.215 18.18 12.425 17.84 12.435 17.45C12.535 15.66 12.495 13.88 12.505 12.09C12.515 8.06 12.495 4.04 12.525 0.02V0.02Z" fill="white"/>
</g>
<defs>
<clipPath id="clip0_17:8">
<rect width="24" height="24" fill="white"/>
</clipPath>
</defs>
</svg>
