<svg width="24" height="24" viewBox="0 0 24 24" fill="none" xmlns="http://www.w3.org/2000/svg">
<g clip-path="url(#clip0_17:30)">
<path d="M11.999 0C11.803 0 11.607 0.05 11.431 0.153L2.02601 5.58C1.85336 5.67956 1.70998 5.82282 1.61027 5.99538C1.51056 6.16794 1.45805 6.36371 1.45801 6.563V17.43C1.45801 17.836 1.67401 18.211 2.02601 18.414L7.81301 21.758V14.414H4.74801V12.471H13.09V14.414H10.025V23.036L11.431 23.848C11.782 24.051 12.215 24.051 12.567 23.848L14.884 22.51C14.3796 22.14 13.9701 21.6558 13.689 21.097L15.49 20.055C15.851 20.645 16.296 21.115 16.97 21.305L19.144 20.049C19.017 19.481 18.446 19.226 17.56 18.839L17.007 18.601C15.411 17.921 14.352 17.069 14.352 15.267C14.352 13.609 15.617 12.345 17.592 12.345C18.998 12.345 20.009 12.835 20.736 14.115L19.013 15.22C18.634 14.54 18.223 14.272 17.592 14.272C16.944 14.272 16.532 14.682 16.532 15.22C16.532 15.883 16.944 16.152 17.892 16.563L18.445 16.8C19.781 17.373 20.7 17.955 21.121 18.907L21.974 18.414C22.326 18.211 22.542 17.836 22.542 17.43V6.565C22.542 6.159 22.326 5.783 21.974 5.581L12.567 0.153C12.3944 0.052926 12.1985 0.000150355 11.999 0V0Z" fill="white"/>
</g>
<defs>
<clipPath id="clip0_17:30">
<rect width="24" height="24" fill="white"/>
</clipPath>
</defs>
</svg>
