<svg width="24" height="24" viewBox="0 0 24 24" fill="none" xmlns="http://www.w3.org/2000/svg">
<g clip-path="url(#clip0_17:24)">
<path d="M8.36 2.17198C8.25402 1.99831 8.10543 1.85461 7.92831 1.7545C7.7512 1.65439 7.55144 1.6012 7.348 1.59998H1.2C0.881741 1.59998 0.576516 1.7264 0.351473 1.95145C0.126429 2.17649 9.29652e-07 2.48172 9.29652e-07 2.79998C-0.00027923 3.02612 0.0627674 3.24782 0.182001 3.43998L11.782 21.84C11.8909 22.0112 12.0413 22.1521 12.2191 22.2497C12.397 22.3474 12.5966 22.3986 12.7995 22.3986C13.0024 22.3986 13.202 22.3474 13.3799 22.2497C13.5577 22.1521 13.7081 22.0112 13.817 21.84L16.892 16.966C17.0104 16.7734 17.0733 16.552 17.074 16.326C17.0747 16.0992 17.0116 15.8767 16.892 15.684L8.36 2.17198ZM18.709 10.852C18.8179 11.0232 18.9683 11.1641 19.1461 11.2617C19.324 11.3594 19.5236 11.4106 19.7265 11.4106C19.9294 11.4106 20.129 11.3594 20.3069 11.2617C20.4847 11.1641 20.6351 11.0232 20.744 10.852L21.8 9.17798L23.817 5.97798C23.9366 5.78592 24 5.56421 24 5.33798C23.999 5.11187 23.9357 4.89041 23.817 4.69798L22.217 2.17198C22.1097 1.9987 21.9602 1.85545 21.7826 1.7556C21.6049 1.65575 21.4048 1.60255 21.201 1.60098H15.053C14.8953 1.60084 14.7392 1.63179 14.5935 1.69203C14.4478 1.75228 14.3154 1.84065 14.2038 1.95209C14.0923 2.06354 14.0038 2.19587 13.9434 2.34152C13.8831 2.48718 13.852 2.64331 13.852 2.80098C13.8496 3.02826 13.9151 3.25108 14.04 3.44098L18.709 10.852Z" fill="white"/>
</g>
<defs>
<clipPath id="clip0_17:24">
<rect width="24" height="24" fill="white"/>
</clipPath>
</defs>
</svg>
